<svg width="38" height="43" viewBox="0 0 38 43" fill="none" xmlns="http://www.w3.org/2000/svg">
<path fill-rule="evenodd" clip-rule="evenodd" d="M1.868 19.7196C1.3565 20.6313 1.3565 21.7436 1.868 22.6553C5.14185 28.4908 11.5976 32.3749 18.9271 32.3749C26.2566 32.3749 32.7123 28.4908 35.9862 22.6553C36.4977 21.7436 36.4977 20.6313 35.9862 19.7196C32.7123 13.8842 26.2566 10 18.9271 10C11.5976 10 5.14185 13.8842 1.868 19.7196ZM4.48438 21.1875C7.2156 16.3192 12.6584 13 18.9271 13C25.1958 13 30.6386 16.3192 33.3698 21.1875C30.6386 26.0557 25.1958 29.3749 18.9271 29.3749C12.6584 29.3749 7.2156 26.0557 4.48438 21.1875ZM19.1508 27.475C22.3909 27.475 25.0175 24.6842 25.0175 21.2417C25.0175 17.7991 22.3909 15.0083 19.1508 15.0083C15.9107 15.0083 13.2841 17.7991 13.2841 21.2417C13.2841 24.6842 15.9107 27.475 19.1508 27.475Z" fill="#9E9E9E"/>
</svg>
